%TF.GenerationSoftware,KiCad,Pcbnew,(5.1.10)-1*%
%TF.CreationDate,2021-10-13T21:07:12+02:00*%
%TF.ProjectId,HotTubControl,486f7454-7562-4436-9f6e-74726f6c2e6b,rev?*%
%TF.SameCoordinates,Original*%
%TF.FileFunction,Copper,L1,Top*%
%TF.FilePolarity,Positive*%
%FSLAX46Y46*%
G04 Gerber Fmt 4.6, Leading zero omitted, Abs format (unit mm)*
G04 Created by KiCad (PCBNEW (5.1.10)-1) date 2021-10-13 21:07:12*
%MOMM*%
%LPD*%
G01*
G04 APERTURE LIST*
%TA.AperFunction,ComponentPad*%
%ADD10O,1.600000X1.600000*%
%TD*%
%TA.AperFunction,ComponentPad*%
%ADD11C,1.600000*%
%TD*%
%TA.AperFunction,ComponentPad*%
%ADD12C,4.000000*%
%TD*%
%TA.AperFunction,ComponentPad*%
%ADD13C,3.000000*%
%TD*%
%TA.AperFunction,ComponentPad*%
%ADD14R,2.000000X1.700000*%
%TD*%
%TA.AperFunction,ComponentPad*%
%ADD15C,2.300000*%
%TD*%
%TA.AperFunction,ComponentPad*%
%ADD16R,2.300000X2.000000*%
%TD*%
%TA.AperFunction,ComponentPad*%
%ADD17C,2.000000*%
%TD*%
%TA.AperFunction,ComponentPad*%
%ADD18R,1.600000X1.600000*%
%TD*%
%TA.AperFunction,ComponentPad*%
%ADD19C,1.800000*%
%TD*%
%TA.AperFunction,ComponentPad*%
%ADD20R,1.800000X1.800000*%
%TD*%
%TA.AperFunction,ComponentPad*%
%ADD21C,1.320800*%
%TD*%
%TA.AperFunction,ViaPad*%
%ADD22C,3.000000*%
%TD*%
G04 APERTURE END LIST*
%TO.P,B1,JP2.8*%
%TO.N,+5V*%
%TA.AperFunction,ComponentPad*%
G36*
G01*
X69648000Y-129730000D02*
X70402000Y-129730000D01*
G75*
G02*
X70779000Y-130107000I0J-377000D01*
G01*
X70779000Y-131353000D01*
G75*
G02*
X70402000Y-131730000I-377000J0D01*
G01*
X69648000Y-131730000D01*
G75*
G02*
X69271000Y-131353000I0J377000D01*
G01*
X69271000Y-130107000D01*
G75*
G02*
X69648000Y-129730000I377000J0D01*
G01*
G37*
%TD.AperFunction*%
%TO.P,B1,JP1.8*%
%TO.N,+3V3*%
%TA.AperFunction,ComponentPad*%
G36*
G01*
X69648000Y-106870000D02*
X70402000Y-106870000D01*
G75*
G02*
X70779000Y-107247000I0J-377000D01*
G01*
X70779000Y-108493000D01*
G75*
G02*
X70402000Y-108870000I-377000J0D01*
G01*
X69648000Y-108870000D01*
G75*
G02*
X69271000Y-108493000I0J377000D01*
G01*
X69271000Y-107247000D01*
G75*
G02*
X69648000Y-106870000I377000J0D01*
G01*
G37*
%TD.AperFunction*%
%TO.P,B1,JP2.1*%
%TO.N,N/C*%
%TA.AperFunction,ComponentPad*%
G36*
G01*
X87428000Y-129730000D02*
X88182000Y-129730000D01*
G75*
G02*
X88559000Y-130107000I0J-377000D01*
G01*
X88559000Y-131353000D01*
G75*
G02*
X88182000Y-131730000I-377000J0D01*
G01*
X87428000Y-131730000D01*
G75*
G02*
X87051000Y-131353000I0J377000D01*
G01*
X87051000Y-130107000D01*
G75*
G02*
X87428000Y-129730000I377000J0D01*
G01*
G37*
%TD.AperFunction*%
%TO.P,B1,JP2.2*%
%TA.AperFunction,ComponentPad*%
G36*
G01*
X84888000Y-129730000D02*
X85642000Y-129730000D01*
G75*
G02*
X86019000Y-130107000I0J-377000D01*
G01*
X86019000Y-131353000D01*
G75*
G02*
X85642000Y-131730000I-377000J0D01*
G01*
X84888000Y-131730000D01*
G75*
G02*
X84511000Y-131353000I0J377000D01*
G01*
X84511000Y-130107000D01*
G75*
G02*
X84888000Y-129730000I377000J0D01*
G01*
G37*
%TD.AperFunction*%
%TO.P,B1,JP2.3*%
%TA.AperFunction,ComponentPad*%
G36*
G01*
X82348000Y-129730000D02*
X83102000Y-129730000D01*
G75*
G02*
X83479000Y-130107000I0J-377000D01*
G01*
X83479000Y-131353000D01*
G75*
G02*
X83102000Y-131730000I-377000J0D01*
G01*
X82348000Y-131730000D01*
G75*
G02*
X81971000Y-131353000I0J377000D01*
G01*
X81971000Y-130107000D01*
G75*
G02*
X82348000Y-129730000I377000J0D01*
G01*
G37*
%TD.AperFunction*%
%TO.P,B1,JP2.4*%
%TA.AperFunction,ComponentPad*%
G36*
G01*
X79808000Y-129730000D02*
X80562000Y-129730000D01*
G75*
G02*
X80939000Y-130107000I0J-377000D01*
G01*
X80939000Y-131353000D01*
G75*
G02*
X80562000Y-131730000I-377000J0D01*
G01*
X79808000Y-131730000D01*
G75*
G02*
X79431000Y-131353000I0J377000D01*
G01*
X79431000Y-130107000D01*
G75*
G02*
X79808000Y-129730000I377000J0D01*
G01*
G37*
%TD.AperFunction*%
%TO.P,B1,JP2.5*%
%TA.AperFunction,ComponentPad*%
G36*
G01*
X77268000Y-129730000D02*
X78022000Y-129730000D01*
G75*
G02*
X78399000Y-130107000I0J-377000D01*
G01*
X78399000Y-131353000D01*
G75*
G02*
X78022000Y-131730000I-377000J0D01*
G01*
X77268000Y-131730000D01*
G75*
G02*
X76891000Y-131353000I0J377000D01*
G01*
X76891000Y-130107000D01*
G75*
G02*
X77268000Y-129730000I377000J0D01*
G01*
G37*
%TD.AperFunction*%
%TO.P,B1,JP2.6*%
%TA.AperFunction,ComponentPad*%
G36*
G01*
X74728000Y-129730000D02*
X75482000Y-129730000D01*
G75*
G02*
X75859000Y-130107000I0J-377000D01*
G01*
X75859000Y-131353000D01*
G75*
G02*
X75482000Y-131730000I-377000J0D01*
G01*
X74728000Y-131730000D01*
G75*
G02*
X74351000Y-131353000I0J377000D01*
G01*
X74351000Y-130107000D01*
G75*
G02*
X74728000Y-129730000I377000J0D01*
G01*
G37*
%TD.AperFunction*%
%TO.P,B1,JP2.7*%
%TO.N,GND*%
%TA.AperFunction,ComponentPad*%
G36*
G01*
X72188000Y-129730000D02*
X72942000Y-129730000D01*
G75*
G02*
X73319000Y-130107000I0J-377000D01*
G01*
X73319000Y-131353000D01*
G75*
G02*
X72942000Y-131730000I-377000J0D01*
G01*
X72188000Y-131730000D01*
G75*
G02*
X71811000Y-131353000I0J377000D01*
G01*
X71811000Y-130107000D01*
G75*
G02*
X72188000Y-129730000I377000J0D01*
G01*
G37*
%TD.AperFunction*%
%TO.P,B1,JP1.1*%
%TO.N,N/C*%
%TA.AperFunction,ComponentPad*%
G36*
G01*
X87428000Y-106870000D02*
X88182000Y-106870000D01*
G75*
G02*
X88559000Y-107247000I0J-377000D01*
G01*
X88559000Y-108493000D01*
G75*
G02*
X88182000Y-108870000I-377000J0D01*
G01*
X87428000Y-108870000D01*
G75*
G02*
X87051000Y-108493000I0J377000D01*
G01*
X87051000Y-107247000D01*
G75*
G02*
X87428000Y-106870000I377000J0D01*
G01*
G37*
%TD.AperFunction*%
%TO.P,B1,JP1.2*%
%TA.AperFunction,ComponentPad*%
G36*
G01*
X84888000Y-106870000D02*
X85642000Y-106870000D01*
G75*
G02*
X86019000Y-107247000I0J-377000D01*
G01*
X86019000Y-108493000D01*
G75*
G02*
X85642000Y-108870000I-377000J0D01*
G01*
X84888000Y-108870000D01*
G75*
G02*
X84511000Y-108493000I0J377000D01*
G01*
X84511000Y-107247000D01*
G75*
G02*
X84888000Y-106870000I377000J0D01*
G01*
G37*
%TD.AperFunction*%
%TO.P,B1,JP1.3*%
%TA.AperFunction,ComponentPad*%
G36*
G01*
X82348000Y-106870000D02*
X83102000Y-106870000D01*
G75*
G02*
X83479000Y-107247000I0J-377000D01*
G01*
X83479000Y-108493000D01*
G75*
G02*
X83102000Y-108870000I-377000J0D01*
G01*
X82348000Y-108870000D01*
G75*
G02*
X81971000Y-108493000I0J377000D01*
G01*
X81971000Y-107247000D01*
G75*
G02*
X82348000Y-106870000I377000J0D01*
G01*
G37*
%TD.AperFunction*%
%TO.P,B1,JP1.4*%
%TO.N,Net-(B1-PadJP1.4)*%
%TA.AperFunction,ComponentPad*%
G36*
G01*
X79808000Y-106870000D02*
X80562000Y-106870000D01*
G75*
G02*
X80939000Y-107247000I0J-377000D01*
G01*
X80939000Y-108493000D01*
G75*
G02*
X80562000Y-108870000I-377000J0D01*
G01*
X79808000Y-108870000D01*
G75*
G02*
X79431000Y-108493000I0J377000D01*
G01*
X79431000Y-107247000D01*
G75*
G02*
X79808000Y-106870000I377000J0D01*
G01*
G37*
%TD.AperFunction*%
%TO.P,B1,JP1.5*%
%TO.N,Net-(B1-PadJP1.5)*%
%TA.AperFunction,ComponentPad*%
G36*
G01*
X77268000Y-106870000D02*
X78022000Y-106870000D01*
G75*
G02*
X78399000Y-107247000I0J-377000D01*
G01*
X78399000Y-108493000D01*
G75*
G02*
X78022000Y-108870000I-377000J0D01*
G01*
X77268000Y-108870000D01*
G75*
G02*
X76891000Y-108493000I0J377000D01*
G01*
X76891000Y-107247000D01*
G75*
G02*
X77268000Y-106870000I377000J0D01*
G01*
G37*
%TD.AperFunction*%
%TO.P,B1,JP1.6*%
%TO.N,Net-(B1-PadJP1.6)*%
%TA.AperFunction,ComponentPad*%
G36*
G01*
X74728000Y-106870000D02*
X75482000Y-106870000D01*
G75*
G02*
X75859000Y-107247000I0J-377000D01*
G01*
X75859000Y-108493000D01*
G75*
G02*
X75482000Y-108870000I-377000J0D01*
G01*
X74728000Y-108870000D01*
G75*
G02*
X74351000Y-108493000I0J377000D01*
G01*
X74351000Y-107247000D01*
G75*
G02*
X74728000Y-106870000I377000J0D01*
G01*
G37*
%TD.AperFunction*%
%TO.P,B1,JP1.7*%
%TO.N,N/C*%
%TA.AperFunction,ComponentPad*%
G36*
G01*
X72188000Y-106870000D02*
X72942000Y-106870000D01*
G75*
G02*
X73319000Y-107247000I0J-377000D01*
G01*
X73319000Y-108493000D01*
G75*
G02*
X72942000Y-108870000I-377000J0D01*
G01*
X72188000Y-108870000D01*
G75*
G02*
X71811000Y-108493000I0J377000D01*
G01*
X71811000Y-107247000D01*
G75*
G02*
X72188000Y-106870000I377000J0D01*
G01*
G37*
%TD.AperFunction*%
%TD*%
D10*
%TO.P,R7,2*%
%TO.N,+3V3*%
X105920000Y-142160000D03*
D11*
%TO.P,R7,1*%
%TO.N,Net-(Q2-Pad1)*%
X105920000Y-126920000D03*
%TD*%
D10*
%TO.P,R3,2*%
%TO.N,+3V3*%
X116080000Y-142160000D03*
D11*
%TO.P,R3,1*%
%TO.N,Net-(B1-PadJP1.4)*%
X116080000Y-126920000D03*
%TD*%
D10*
%TO.P,R6,2*%
%TO.N,+5V*%
X100840000Y-142160000D03*
D11*
%TO.P,R6,1*%
%TO.N,Net-(JP2-Pad3)*%
X100840000Y-126920000D03*
%TD*%
D10*
%TO.P,R5,2*%
%TO.N,+3V3*%
X111000000Y-142160000D03*
D11*
%TO.P,R5,1*%
%TO.N,Net-(JP1-Pad3)*%
X111000000Y-126920000D03*
%TD*%
D12*
%TO.P,J6,3*%
%TO.N,Net-(J6-Pad3)*%
X89330000Y-91120000D03*
%TO.P,J6,2*%
%TO.N,Net-(J6-Pad2)*%
X89330000Y-83620000D03*
%TO.P,J6,1*%
%TO.N,Net-(F1-Pad2)*%
X89330000Y-76120000D03*
%TO.P,J6,3*%
%TO.N,Net-(J6-Pad3)*%
X84330000Y-91120000D03*
%TO.P,J6,2*%
%TO.N,Net-(J6-Pad2)*%
X84330000Y-83620000D03*
%TO.P,J6,1*%
%TO.N,Net-(F1-Pad2)*%
X84330000Y-76120000D03*
%TD*%
D13*
%TO.P,K1,4*%
%TO.N,Net-(D1-Pad1)*%
X63660000Y-88820000D03*
%TO.P,K1,3*%
%TO.N,Net-(F1-Pad2)*%
X64930000Y-73580000D03*
%TO.P,K1,2*%
%TO.N,Net-(J6-Pad2)*%
X71280000Y-73580000D03*
%TO.P,K1,1*%
%TO.N,+5V*%
X71280000Y-88820000D03*
%TD*%
%TO.P,Q1,1*%
%TO.N,Net-(D1-Pad1)*%
%TA.AperFunction,ComponentPad*%
G36*
G01*
X119152500Y-105821000D02*
X120627500Y-105821000D01*
G75*
G02*
X120890000Y-106083500I0J-262500D01*
G01*
X120890000Y-106608500D01*
G75*
G02*
X120627500Y-106871000I-262500J0D01*
G01*
X119152500Y-106871000D01*
G75*
G02*
X118890000Y-106608500I0J262500D01*
G01*
X118890000Y-106083500D01*
G75*
G02*
X119152500Y-105821000I262500J0D01*
G01*
G37*
%TD.AperFunction*%
%TO.P,Q1,3*%
%TO.N,GND*%
%TA.AperFunction,ComponentPad*%
G36*
G01*
X119152500Y-108869000D02*
X120627500Y-108869000D01*
G75*
G02*
X120890000Y-109131500I0J-262500D01*
G01*
X120890000Y-109656500D01*
G75*
G02*
X120627500Y-109919000I-262500J0D01*
G01*
X119152500Y-109919000D01*
G75*
G02*
X118890000Y-109656500I0J262500D01*
G01*
X118890000Y-109131500D01*
G75*
G02*
X119152500Y-108869000I262500J0D01*
G01*
G37*
%TD.AperFunction*%
%TO.P,Q1,2*%
%TO.N,Net-(Q1-Pad2)*%
%TA.AperFunction,ComponentPad*%
G36*
G01*
X119152500Y-107345000D02*
X120627500Y-107345000D01*
G75*
G02*
X120890000Y-107607500I0J-262500D01*
G01*
X120890000Y-108132500D01*
G75*
G02*
X120627500Y-108395000I-262500J0D01*
G01*
X119152500Y-108395000D01*
G75*
G02*
X118890000Y-108132500I0J262500D01*
G01*
X118890000Y-107607500D01*
G75*
G02*
X119152500Y-107345000I262500J0D01*
G01*
G37*
%TD.AperFunction*%
%TD*%
%TO.P,J5,2*%
%TO.N,GND*%
%TA.AperFunction,ComponentPad*%
G36*
G01*
X108190000Y-118875000D02*
X108190000Y-119725000D01*
G75*
G02*
X107765000Y-120150000I-425000J0D01*
G01*
X106615000Y-120150000D01*
G75*
G02*
X106190000Y-119725000I0J425000D01*
G01*
X106190000Y-118875000D01*
G75*
G02*
X106615000Y-118450000I425000J0D01*
G01*
X107765000Y-118450000D01*
G75*
G02*
X108190000Y-118875000I0J-425000D01*
G01*
G37*
%TD.AperFunction*%
D14*
%TO.P,J5,1*%
%TO.N,Net-(B1-PadJP1.4)*%
X107190000Y-121840000D03*
%TD*%
%TO.P,J4,3*%
%TO.N,GND*%
%TA.AperFunction,ComponentPad*%
G36*
G01*
X114540000Y-116335000D02*
X114540000Y-117185000D01*
G75*
G02*
X114115000Y-117610000I-425000J0D01*
G01*
X112965000Y-117610000D01*
G75*
G02*
X112540000Y-117185000I0J425000D01*
G01*
X112540000Y-116335000D01*
G75*
G02*
X112965000Y-115910000I425000J0D01*
G01*
X114115000Y-115910000D01*
G75*
G02*
X114540000Y-116335000I0J-425000D01*
G01*
G37*
%TD.AperFunction*%
%TO.P,J4,2*%
%TO.N,Net-(J1-Pad2)*%
%TA.AperFunction,ComponentPad*%
G36*
G01*
X114540000Y-118875000D02*
X114540000Y-119725000D01*
G75*
G02*
X114115000Y-120150000I-425000J0D01*
G01*
X112965000Y-120150000D01*
G75*
G02*
X112540000Y-119725000I0J425000D01*
G01*
X112540000Y-118875000D01*
G75*
G02*
X112965000Y-118450000I425000J0D01*
G01*
X114115000Y-118450000D01*
G75*
G02*
X114540000Y-118875000I0J-425000D01*
G01*
G37*
%TD.AperFunction*%
%TO.P,J4,1*%
%TO.N,Net-(J1-Pad1)*%
X113540000Y-121840000D03*
%TD*%
%TO.P,J3,3*%
%TO.N,GND*%
%TA.AperFunction,ComponentPad*%
G36*
G01*
X120890000Y-116335000D02*
X120890000Y-117185000D01*
G75*
G02*
X120465000Y-117610000I-425000J0D01*
G01*
X119315000Y-117610000D01*
G75*
G02*
X118890000Y-117185000I0J425000D01*
G01*
X118890000Y-116335000D01*
G75*
G02*
X119315000Y-115910000I425000J0D01*
G01*
X120465000Y-115910000D01*
G75*
G02*
X120890000Y-116335000I0J-425000D01*
G01*
G37*
%TD.AperFunction*%
%TO.P,J3,2*%
%TO.N,Net-(J1-Pad2)*%
%TA.AperFunction,ComponentPad*%
G36*
G01*
X120890000Y-118875000D02*
X120890000Y-119725000D01*
G75*
G02*
X120465000Y-120150000I-425000J0D01*
G01*
X119315000Y-120150000D01*
G75*
G02*
X118890000Y-119725000I0J425000D01*
G01*
X118890000Y-118875000D01*
G75*
G02*
X119315000Y-118450000I425000J0D01*
G01*
X120465000Y-118450000D01*
G75*
G02*
X120890000Y-118875000I0J-425000D01*
G01*
G37*
%TD.AperFunction*%
%TO.P,J3,1*%
%TO.N,Net-(J1-Pad1)*%
%TA.AperFunction,ComponentPad*%
G36*
G01*
X120890000Y-121415000D02*
X120890000Y-122265000D01*
G75*
G02*
X120465000Y-122690000I-425000J0D01*
G01*
X119315000Y-122690000D01*
G75*
G02*
X118890000Y-122265000I0J425000D01*
G01*
X118890000Y-121415000D01*
G75*
G02*
X119315000Y-120990000I425000J0D01*
G01*
X120465000Y-120990000D01*
G75*
G02*
X120890000Y-121415000I0J-425000D01*
G01*
G37*
%TD.AperFunction*%
%TD*%
%TO.P,J1,3*%
%TO.N,GND*%
%TA.AperFunction,ComponentPad*%
G36*
G01*
X126920999Y-116335000D02*
X126920999Y-117185000D01*
G75*
G02*
X126495999Y-117610000I-425000J0D01*
G01*
X125345999Y-117610000D01*
G75*
G02*
X124920999Y-117185000I0J425000D01*
G01*
X124920999Y-116335000D01*
G75*
G02*
X125345999Y-115910000I425000J0D01*
G01*
X126495999Y-115910000D01*
G75*
G02*
X126920999Y-116335000I0J-425000D01*
G01*
G37*
%TD.AperFunction*%
%TO.P,J1,2*%
%TO.N,Net-(J1-Pad2)*%
%TA.AperFunction,ComponentPad*%
G36*
G01*
X126920999Y-118875000D02*
X126920999Y-119725000D01*
G75*
G02*
X126495999Y-120150000I-425000J0D01*
G01*
X125345999Y-120150000D01*
G75*
G02*
X124920999Y-119725000I0J425000D01*
G01*
X124920999Y-118875000D01*
G75*
G02*
X125345999Y-118450000I425000J0D01*
G01*
X126495999Y-118450000D01*
G75*
G02*
X126920999Y-118875000I0J-425000D01*
G01*
G37*
%TD.AperFunction*%
%TO.P,J1,1*%
%TO.N,Net-(J1-Pad1)*%
X125920999Y-121840000D03*
%TD*%
%TO.P,J2,3*%
%TO.N,GND*%
%TA.AperFunction,ComponentPad*%
G36*
G01*
X133590000Y-116335000D02*
X133590000Y-117185000D01*
G75*
G02*
X133165000Y-117610000I-425000J0D01*
G01*
X132015000Y-117610000D01*
G75*
G02*
X131590000Y-117185000I0J425000D01*
G01*
X131590000Y-116335000D01*
G75*
G02*
X132015000Y-115910000I425000J0D01*
G01*
X133165000Y-115910000D01*
G75*
G02*
X133590000Y-116335000I0J-425000D01*
G01*
G37*
%TD.AperFunction*%
%TO.P,J2,2*%
%TO.N,Net-(J1-Pad2)*%
%TA.AperFunction,ComponentPad*%
G36*
G01*
X133590000Y-118875000D02*
X133590000Y-119725000D01*
G75*
G02*
X133165000Y-120150000I-425000J0D01*
G01*
X132015000Y-120150000D01*
G75*
G02*
X131590000Y-119725000I0J425000D01*
G01*
X131590000Y-118875000D01*
G75*
G02*
X132015000Y-118450000I425000J0D01*
G01*
X133165000Y-118450000D01*
G75*
G02*
X133590000Y-118875000I0J-425000D01*
G01*
G37*
%TD.AperFunction*%
%TO.P,J2,1*%
%TO.N,Net-(J1-Pad1)*%
X132590000Y-121840000D03*
%TD*%
D11*
%TO.P,C2,2*%
%TO.N,GND*%
X100840000Y-101440000D03*
%TO.P,C2,1*%
%TO.N,+5V*%
X100840000Y-96440000D03*
%TD*%
D10*
%TO.P,R4,2*%
%TO.N,Net-(JP3-Pad1)*%
X121160000Y-130730000D03*
D11*
%TO.P,R4,1*%
%TO.N,Net-(J1-Pad2)*%
X136400000Y-130730000D03*
%TD*%
D10*
%TO.P,R2,2*%
%TO.N,+5V*%
X91950000Y-101520000D03*
D11*
%TO.P,R2,1*%
%TO.N,Net-(D1-Pad2)*%
X76710000Y-101520000D03*
%TD*%
D10*
%TO.P,R1,2*%
%TO.N,Net-(B1-PadJP1.5)*%
X95760000Y-107870000D03*
D11*
%TO.P,R1,1*%
%TO.N,Net-(Q1-Pad2)*%
X111000000Y-107870000D03*
%TD*%
D15*
%TO.P,PS1,16*%
%TO.N,+5V*%
X130060000Y-92630000D03*
%TO.P,PS1,14*%
%TO.N,GND*%
X130060000Y-97710000D03*
%TO.P,PS1,3*%
%TO.N,Net-(F1-Pad1)*%
X112280000Y-72310000D03*
D16*
%TO.P,PS1,1*%
%TO.N,Net-(J6-Pad3)*%
X112280000Y-67230000D03*
D15*
%TO.P,PS1,5*%
%TO.N,N/C*%
X112280000Y-97710000D03*
%TD*%
D17*
%TO.P,F1,2*%
%TO.N,Net-(F1-Pad2)*%
X98300000Y-77380000D03*
%TO.P,F1,1*%
%TO.N,Net-(F1-Pad1)*%
X103380000Y-77390000D03*
%TD*%
D10*
%TO.P,D2,2*%
%TO.N,Net-(D1-Pad1)*%
X64010000Y-96440000D03*
D18*
%TO.P,D2,1*%
%TO.N,+5V*%
X71630000Y-96440000D03*
%TD*%
D19*
%TO.P,D1,2*%
%TO.N,Net-(D1-Pad2)*%
X61470000Y-104060000D03*
D20*
%TO.P,D1,1*%
%TO.N,Net-(D1-Pad1)*%
X61470000Y-101520000D03*
%TD*%
D21*
%TO.P,C1,2*%
%TO.N,GND*%
X138280000Y-87550000D03*
%TO.P,C1,1*%
%TO.N,+5V*%
X138280000Y-82470000D03*
%TD*%
D22*
%TO.N,*%
X65280000Y-138350000D03*
X137280000Y-138350000D03*
X137280000Y-66350000D03*
X65280000Y-66350000D03*
%TD*%
M02*
