M48
; DRILL file {KiCad (5.1.10)-1} date 10/13/21 21:18:52
; FORMAT={-:-/ absolute / inch / decimal}
; #@! TF.CreationDate,2021-10-13T21:18:52+02:00
; #@! TF.GenerationSoftware,Kicad,Pcbnew,(5.1.10)-1
FMAT,2
INCH
T1C0.0295
T2C0.0299
T3C0.0315
T4C0.0320
T5C0.0354
T6C0.0394
T7C0.0440
T8C0.0472
%
G90
G05
T1
X4.7201Y-4.1869
X4.7201Y-4.2469
X4.7201Y-4.3069
T2
X4.4205Y-3.8469
X5.1205Y-3.6469
X5.1205Y-3.8469
T3
X2.5201Y-3.7969
X2.5701Y-2.6122
X2.5701Y-5.4469
X2.8201Y-3.7969
X3.0201Y-3.9969
X3.6201Y-3.9969
X3.7701Y-4.2469
X3.9701Y-3.7969
X3.9701Y-3.9937
X3.9701Y-4.9969
X3.9701Y-5.5969
X4.1701Y-4.9969
X4.1701Y-5.5969
X4.3701Y-4.2469
X4.3701Y-4.9969
X4.3701Y-5.5969
X4.4205Y-2.6469
X4.4205Y-2.8469
X4.5701Y-4.9969
X4.5701Y-5.5969
X4.7701Y-5.1469
X5.3701Y-5.1469
X5.4047Y-2.6122
X5.4047Y-5.4469
T4
X5.4441Y-3.2469
X5.4441Y-3.4469
T5
X2.4201Y-3.9969
X2.4201Y-4.0969
T6
X2.5063Y-3.4969
X2.7569Y-4.2469
X2.7569Y-5.1469
X2.8063Y-3.4969
X2.8569Y-4.2469
X2.8569Y-5.1469
X2.9569Y-4.2469
X2.9569Y-5.1469
X3.0569Y-4.2469
X3.0569Y-5.1469
X3.1569Y-4.2469
X3.1569Y-5.1469
X3.2569Y-4.2469
X3.2569Y-5.1469
X3.3569Y-4.2469
X3.3569Y-5.1469
X3.4569Y-4.2469
X3.4569Y-5.1469
X3.8701Y-3.0465
X4.0701Y-3.0469
X4.2201Y-4.6969
X4.2201Y-4.7969
X4.4701Y-4.5969
X4.4701Y-4.6969
X4.4701Y-4.7969
X4.7201Y-4.5969
X4.7201Y-4.6969
X4.7201Y-4.7969
X4.9575Y-4.5969
X4.9575Y-4.6969
X4.9575Y-4.7969
X5.2201Y-4.5969
X5.2201Y-4.6969
X5.2201Y-4.7969
T7
X3.3201Y-2.9969
X3.3201Y-3.2921
X3.3201Y-3.5874
X3.5169Y-2.9969
X3.5169Y-3.2921
X3.5169Y-3.5874
T8
X2.5563Y-2.8969
X2.8063Y-2.8969
T0
M30
